<svg xmlns="http://www.w3.org/2000/svg" enable-background="new 0 0 48 48" viewBox="0 0 48 48" width="256" height="256"><path d="M42.95,24.75c0.03-0.3,0.05-0.59,0.05-0.89c0-4.57-3.72-8.29-8.29-8.29c-0.32,0-0.64,0.02-0.96,0.06c-1.88-4.81-6.56-8.06-11.81-8.06c-7,0-12.7,5.7-12.7,12.7c0,0.08,0,0.17,0,0.25c-4.93,0.62-8.75,4.83-8.75,9.93c0,5.52,4.49,10,10,10h28.71c4.57,0,8.29-3.72,8.29-8.29C47.5,28.97,45.72,26.14,42.95,24.75z M39.21,37.44H10.5c-3.86,0-7-3.14-7-7c0-3.86,3.14-7,7-7l0.32,0.02c0.47,0.02,0.88-0.16,1.18-0.5c0.3-0.33,0.44-0.78,0.37-1.23c-0.08-0.56-0.13-1.03-0.13-1.47c0-5.35,4.35-9.7,9.7-9.7c4.38,0,8.22,2.96,9.35,7.19c0.11,0.39,0.37,0.73,0.72,0.92c0.36,0.2,0.78,0.24,1.16,0.13c0.5-0.15,1.01-0.23,1.53-0.23c2.92,0,5.29,2.37,5.29,5.29c0,0.46-0.07,0.94-0.2,1.41c-0.22,0.78,0.22,1.59,1,1.83c2.21,0.7,3.7,2.72,3.7,5.05C44.5,35.07,42.13,37.44,39.21,37.44z" fill="currentColor" class="color000 svgShape"></path></svg>
