<svg xmlns="http://www.w3.org/2000/svg" viewBox="0 0 32 32" width="256" height="256"><path d="M16,1.522C11.394,1.522,4.547,13,4.547,19.025a11.453,11.453,0,0,0,22.906,0C27.453,13,20.606,1.522,16,1.522Zm0,26.956a9.464,9.464,0,0,1-9.453-9.453c0-5.612,6.524-15.5,9.453-15.5s9.453,9.891,9.453,15.5A9.464,9.464,0,0,1,16,28.478Zm3.979-13.042-6.543,6.543a1,1,0,0,1-1.415-1.415l6.543-6.543a1,1,0,0,1,1.415,1.415Zm-2.62,3.923A2.461,2.461,0,0,0,20.84,22.84h0a2.466,2.466,0,0,0,0-3.481A2.522,2.522,0,0,0,17.359,19.359Zm2.067,2.067a.462.462,0,0,1-.788-.326.462.462,0,1,1,.788.326Zm-4.785-4.785A2.461,2.461,0,1,0,11.16,13.16h0a2.461,2.461,0,1,0,3.481,3.481Zm-2.067-2.067a.462.462,0,1,1,0,.653A.463.463,0,0,1,12.574,14.574Z" fill="currentColor" class="color000 svgShape"></path></svg>
