<svg xmlns="http://www.w3.org/2000/svg" viewBox="0 0 16 16" width="20" height="20">
    <path d="M13,6h-13v-2h13c0.55127,0 1,-0.44873 1,-1c0,-0.55127 -0.44873,-1 -1,-1c-0.55127,0 -1,0.44873 -1,1h-2c0,-1.6543 1.3457,-3 3,-3c1.6543,0 3,1.3457 3,3c0,1.6543 -1.3457,3 -3,3Z"
          transform="translate(0 1)" fill="currentColor" class="color000 svgShape"></path>
    <path d="M10.5,6c-1.6543,0 -3,-1.3457 -3,-3h2c0,0.55127 0.44873,1 1,1c0.55127,0 1,-0.44873 1,-1c0,-0.55127 -0.44873,-1 -1,-1h-10.5v-2h10.5c1.6543,0 3,1.3457 3,3c0,1.6543 -1.3457,3 -3,3Z"
          transform="translate(0 9)" fill="currentColor" class="color000 svgShape"></path>
</svg>
