<svg xmlns="http://www.w3.org/2000/svg" enable-background="new 0 0 310 310" viewBox="0 0 310 310" width="550" height="550"><path fill="#3a4146" d="M272.187 68.044V249.16c0 5.494-7.383 12.864-16.48 12.864H165.91c-9.096 0-16.48-7.37-16.48-12.864V68.044c0-12.7 7.384-20.07 16.48-20.07h89.797c9.097 0 16.48 7.37 16.48 20.07z" class="color3a4146 svgShape"></path><path fill="#4a5258" d="M272.183 68.041V249.16c0 5.493-7.376 12.869-16.48 12.869h-89.788c-9.104 0-16.48-7.376-16.48-12.87V68.042c0-12.693 7.376-20.069 16.48-20.069h89.788c9.104 0 16.48 7.376 16.48 20.07z" class="color4a5258 svgShape"></path><path fill="#ffffff" d="M165.91 259.617c-7.76 0-14.072-6.307-14.072-10.457V68.044c0-11.356 6.307-17.663 14.06-17.663h16.032a4.288 4.288 0 0 1 4.283 4.283c0 .983.8 1.782 1.782 1.782h46.43c.982 0 1.782-.8 1.782-1.782a4.288 4.288 0 0 1 4.283-4.283h15.217c7.76 0 14.073 6.313 14.073 17.677V249.16c0 4.15-6.313 10.457-14.073 10.457H165.91z" class="colorfff svgShape"></path><path fill="#f3f6fd" d="M168.607 99.811h90.192v53.991h-90.192zM258.797 99.805h-90.195L213.7 68.237z" class="colorf3f6fd svgShape"></path><path fill="#d1dcf8" d="M261.343 103.986 213.7 70.637l-47.642 33.35-1.714-3.602L213.7 65.837l49.356 34.548z" class="colord1dcf8 svgShape"></path><circle cx="195.628" cy="52.359" r="2.018" fill="#ffffff" class="colorfff svgShape"></circle><path fill="#ffffff" d="M228.008 52.353v.011c0 .49-.392.882-.882.882h-26.852a.878.878 0 0 1-.882-.882v-.01c0-.49.392-.882.882-.882h26.852c.49 0 .882.391.882.881z" class="colorfff svgShape"></path><path d="M272.183 173.664v29.955h-80.821a3.57 3.57 0 0 1-3.578-3.578v-22.799a3.578 3.578 0 0 1 3.578-3.578h80.821z" opacity=".05" fill="#000000" class="color000 svgShape"></path><path fill="#f3f6fd" d="M279.746 200.77h-85.921a3.254 3.254 0 0 1-3.255-3.255v-23.452a3.254 3.254 0 0 1 3.255-3.254h85.92a3.254 3.254 0 0 1 3.255 3.254v23.452a3.254 3.254 0 0 1-3.254 3.254z" class="colorf3f6fd svgShape"></path><path fill="#d1dcf8" d="M272.769 180.975a.876.876 0 0 1-.875.875H221.87c-.477 0-.875-.388-.875-.875s.398-.875.875-.875h50.024c.477 0 .875.388.875.875zM272.769 185.79a.876.876 0 0 1-.875.874H221.87a.876.876 0 0 1-.875-.875c0-.487.398-.875.875-.875h50.024c.477 0 .875.388.875.875zM245.112 190.604a.876.876 0 0 1-.875.875H221.87a.876.876 0 0 1-.875-.875c0-.487.398-.875.875-.875h22.367c.477 0 .875.388.875.875z" class="colord1dcf8 svgShape"></path><path d="M149.256 213.007v29.955h77.724a3.57 3.57 0 0 0 3.578-3.578v-22.8a3.578 3.578 0 0 0-3.578-3.577h-77.724z" opacity=".05" fill="#000000" class="color000 svgShape"></path><path fill="#f3f6fd" d="M141.694 240.112h82.823a3.254 3.254 0 0 0 3.254-3.254v-23.452a3.254 3.254 0 0 0-3.254-3.254h-82.823a3.254 3.254 0 0 0-3.254 3.254v23.452a3.254 3.254 0 0 0 3.254 3.254z" class="colorf3f6fd svgShape"></path><path fill="#d1dcf8" d="M147.04 220.318c0 .487.398.875.876.875h46.926c.477 0 .875-.388.875-.875s-.398-.875-.875-.875h-46.926a.876.876 0 0 0-.875.875zM147.04 225.132c0 .487.398.875.876.875h46.926c.477 0 .875-.388.875-.875s-.398-.875-.875-.875h-46.926a.876.876 0 0 0-.875.875zM174.698 229.947c0 .487.397.875.875.875h19.269c.477 0 .875-.388.875-.875s-.398-.875-.875-.875h-19.27a.876.876 0 0 0-.874.875z" class="colord1dcf8 svgShape"></path><path fill="#fec9ac" d="m88.649 253.78 6.5 4.46 3.78-1.663s.095-3.118.17-7.748c.038-3.497.095-6.615.095-6.804 0-.472-9.714.095-10.167.246-.19.057-.284 2.192-.322 4.762-.094 3.818-.056 6.407-.056 6.747z" class="colorfec9ac svgShape"></path><path fill="#ffab90" d="M88.705 247.033a19.755 19.755 0 0 0 9.355 1.89c.34-.019.7-.037 1.04-.094.037-3.497.094-6.615.094-6.804 0-.472-9.714.095-10.167.246-.19.057-.284 2.192-.322 4.762z" opacity=".5" class="colorffab90 svgShape"></path><path fill="#3a4146" d="M85.398 261.029c.088.587.6.999 1.2.999h29.276c.512 0 .962-.312 1.149-.787.437-1.186 1.024-3.385-.337-4.321-1.899-1.3-5.92-.1-8.693-2.061-2.76-1.949-6.07-8.581-10.042-4.072 0 0-3.198 4.896-5.371 3.86-2.173-1.037-3.797-6.395-6.407-4.347-1.312 1.037-1.2 8.206-.775 10.729z" class="color3a4146 svgShape"></path><path fill="#fec9ac" d="m58.874 253.78 6.502 4.46 3.78-1.663s.094-3.118.17-7.748c.037-3.497.094-6.615.094-6.804 0-.472-9.714.095-10.168.246-.188.057-.283 2.192-.32 4.762-.095 3.818-.058 6.407-.058 6.747z" class="colorfec9ac svgShape"></path><path fill="#ffab90" d="M58.931 247.033a19.755 19.755 0 0 0 9.355 1.89c.34-.019.7-.037 1.04-.094.037-3.497.094-6.615.094-6.804 0-.472-9.714.095-10.168.246-.188.057-.283 2.192-.32 4.762z" opacity=".5" class="colorffab90 svgShape"></path><path fill="#3a4146" d="M55.624 261.029c.088.587.6.999 1.2.999H86.1c.512 0 .962-.312 1.149-.787.437-1.186 1.024-3.385-.337-4.321-1.899-1.3-5.92-.1-8.693-2.061-2.76-1.949-6.07-8.581-10.042-4.072 0 0-3.198 4.896-5.371 3.86-2.173-1.037-3.797-6.395-6.407-4.347-1.312 1.037-1.2 8.206-.775 10.729z" class="color3a4146 svgShape"></path><path fill="#4a5258" d="m105.775 153.002-.287 12.31-2.12 79.362s-8.006 2.432-13.381 1.97c-2.657-.224-4.777-.648-5.188-1.396-1.272-2.245-2.819-57.538-2.819-57.538s-8.73 58.237-9.578 58.386c-.286.05-1.995-.062-4.177-.337-4.328-.548-10.514-1.733-11.337-3.592-.947-2.17 1.896-50.267 3.255-78.39.387-8.355.661-13.743.661-13.743l44.971 2.968z" class="color4a5258 svgShape"></path><path fill="#2e363a" d="m105.775 153.002-.287 12.31c-18.295 4.44-36.977.685-45.345-1.534.387-8.356.661-13.744.661-13.744l44.971 2.968zM89.988 246.057c-2.652-.233-4.772-.656-5.195-1.395-1.272-2.256-2.817-57.549-2.817-57.549s-8.723 58.247-9.57 58.397c-.287.041-1.996-.068-4.184-.342l14.382-69.211 7.384 70.1z" class="color2e363a svgShape"></path><path fill="#003567" d="M46.89 119.221c-.475-.38-10.632-7.024-6.645-18.415s11.77-8.354 13.669-12.815c1.898-4.461.38-10.252 6.36-11.58 5.98-1.33 11.2 1.999 11.77-5.55s2.563-23.118 19.175-16.853c0 0 7.084-4.841 10.946 4.936 3.863 9.777.825 12.53 5.097 18.32 4.271 5.79 3.702 16.138 0 21.454-3.702 5.315-35.218 16.801-35.597 16.801s-24.776 3.702-24.776 3.702z" class="color003567 svgShape"></path><path fill="#fec9ac" d="M55.423 110.682s-16.429 18.442-23.053 35.39c0 0-9.458 11.865-3.27 16.173 6.022 4.193 8.335-8.117 8.335-8.117s3.624 3.186 4.676 2.4c1.323-.99-1.234-6.494-1.234-6.494s23.166-27.496 26.332-29.885-3.734-10.44-3.734-10.44l-8.052.973zM153.45 102.34c-.857 4.2-10.036 5.557-10.036 5.557s-18.359 18.346-26.399 18.768c-5.684.308-14.441-10.997-14.441-10.997l9.46-12.393s7.766 7.918 8.035 8.046c.282.14 20.58-12.22 20.58-12.22s.115-5.953 2.189-5.67c2.06.28 1.561 3.277 1.561 3.277s7.35-11.792 9.628-9.423c2.279 2.368-4.417 8.424-4.212 8.565.218.153 4.494 2.291 3.636 6.49z" class="colorfec9ac svgShape"></path><path fill="#7cd194" d="M103.585 117.65h-.04s5.684 27.67 6.023 35.465c.065 1.565.052 2.581-.104 2.75-4.054 4.641-52.172 1.899-53.033-4.097-.495-3.611 9.547-30.585 9.847-31.315l.013-.013s-.548-.313-1.421-.848c-3.115-1.916-10.39-6.778-12.266-11.327 0 0 2.098-2.66 5.592-6.088a76.362 76.362 0 0 1 4.823-4.406c7.352-6.178 17.65-12.422 27.674-10.415.339.065.69.143 1.043.235 2.933.717 5.8 1.981 8.46 3.506l.026.013c4.002 2.268 7.573 5.123 10.285 7.535a81.675 81.675 0 0 1 3.493 3.324 55.868 55.868 0 0 1 1.72 1.85c-.351 3.937-7.794 14-12.135 13.831z" class="color7cd194 svgShape"></path><path fill="#71c687" d="M115.72 103.82c-.351 3.936-7.794 14-12.135 13.83-.013-.039-.013-.091-.026-.13l-1.72-19.423c.716 2.334 1.446 4.667 2.176 7.013.287.952.665 1.994 1.551 2.45.691.366 1.538.261 2.242-.077.691-.34 1.265-.874 1.825-1.408l4.107-3.872c.09-.078.169-.17.26-.234a55.868 55.868 0 0 1 1.72 1.85zM109.464 155.866c-4.054 4.64-52.172 1.898-53.033-4.098-.495-3.611 9.547-30.585 9.847-31.315l.013-.013s-.548-.313-1.421-.848c.091-.143.182-.286.287-.43 2.503-3.585 5.579-7.234 9.476-9.333 3.064-1.642 6.635-1.186 6.336 2.894-.209 2.815-.704 5.618-1.004 8.434-.521 4.98-.43 10.324 2.229 14.56 2.594 4.093 7.222 6.479 11.85 7.939 4.092 1.277 11.47 8.078 15.524 9.46.065 1.564.052 2.58-.104 2.75z" class="color71c687 svgShape"></path><path fill="#71c687" d="M81.073 106.61c-2.216 5.84-6.765 13.778-9.998 15.85-.795.509-4.354-1.747-4.758-1.994l-.026-.026h-.013c-.34-.196-11.315-6.44-13.674-12.175 0 0 2.098-2.66 5.592-6.088 9.594 8.343 22.877 4.432 22.877 4.432z" class="color71c687 svgShape"></path><path fill="#61ba76" d="M82.246 102.698c-.331 2.348-1.176 4.591-2.086 6.77-.921 2.183-2.026 4.283-3.222 6.331-1.254 2.008-2.572 4.006-4.294 5.688a9.958 9.958 0 0 1-1.419 1.13c-.39.227-.732.085-1.022.021a5.903 5.903 0 0 1-.85-.327c-1.074-.529-2.075-1.158-3.038-1.843l-.025-.028h-.012.013l.028.024c1.04.553 2.077 1.125 3.166 1.537.27.102.542.206.814.265.262.058.566.106.691-.01.46-.337.886-.721 1.284-1.14 1.583-1.691 2.889-3.658 4.083-5.667 1.23-1.995 2.314-4.079 3.328-6.195 1.002-2.119 1.957-4.275 2.561-6.556zM103.553 117.645c-.349-3.307-.571-6.61-.844-9.908-.12-1.65-.28-3.294-.43-4.94-.164-1.645-.35-3.285-.69-4.912.613 1.553.936 3.204 1.21 4.843.274 1.643.453 3.3.587 4.955.122 1.658.22 3.317.24 4.978.028 1.661.028 3.323-.073 4.984z" class="color61ba76 svgShape"></path><path fill="#fec9ac" d="M86.739 94.559c-10.426-1.837-6.504-6.836-6.504-6.836l.428-6.462.276-4.005 4.833-4.543 8.327 6.09-1.05 6.67-.248 1.574s1.505.842 2.25 1.615c1.56 1.657.87 7.498-8.312 5.897z" class="colorfec9ac svgShape"></path><path fill="#ffab90" d="m94.099 78.803-1.05 6.67c-4.805-.18-10.757-3.3-12.386-4.212l.276-4.005 4.833-4.543 8.327 6.09z" opacity=".5" class="colorffab90 svgShape"></path><path fill="#fec9ac" d="M80.861 79.56s-6.607.318-6.039-4.739c.736-6.555 7.257-.401 10.134-3.98 2.876-3.578 8.261-12.643 8.428-12.726s3.545 1.054 4.582 2.76c1.036 1.705 7.257 15.518.468 21.76-4.837 4.448-17.573-3.076-17.573-3.076z" class="colorfec9ac svgShape"></path><path fill="#4f2d2b" d="M91.264 77.174c.048-.071.464.22 1.337.654.729.383 1.559.538 2.357.368.943-.179 1.346-.505 1.397-.424.039.032-.304.49-1.33.754-.872.188-1.805.01-2.576-.397-.894-.517-1.22-.907-1.185-.955zM96.482 75.082c-.013-.036.122-.105.361-.269a2.93 2.93 0 0 0 .411-.345c.153-.16.286-.325.146-.491-.25-.37-.726-.64-1.083-1.038a6.508 6.508 0 0 1-.924-1.272c-.563-1.092-.703-1.678-.648-1.704.078-.037.342.51.94 1.537.25.436.534.85.875 1.207.323.37.783.608 1.123 1.088.11.147.13.414.036.559-.08.151-.187.243-.277.32a2.18 2.18 0 0 1-.501.314c-.29.125-.45.127-.46.094zM98.659 64.594c-.06.065-.305-.203-.942-.323-.533-.117-1.105.014-1.61.262-.656.245-.67.557-.734.575-.028.01-.106-.093-.036-.298.068-.201.305-.415.622-.579.549-.27 1.196-.426 1.83-.288.744.214.923.627.87.651zM92.422 66.64c-.03.086-.424-.088-1.225-.031a3.749 3.749 0 0 0-1.91.661c-.676.436-.787.856-.869.826-.067.011-.055-.549.677-1.101a4.078 4.078 0 0 1 2.086-.722c.9.005 1.273.322 1.241.367z" class="color4f2d2b svgShape"></path><ellipse cx="97.886" cy="68.212" fill="#4f2d2b" rx=".804" ry="1.289" transform="rotate(-22.613 97.886 68.212)" class="color4f2d2b svgShape"></ellipse><ellipse cx="91.655" cy="71.076" fill="#4f2d2b" rx=".804" ry="1.289" transform="rotate(-22.613 91.655 71.076)" class="color4f2d2b svgShape"></ellipse><path fill="#ffab90" d="M80.242 76.75c.037.054-.043.216-.337.382-.286.154-.822.316-1.502.09-1.142-.454-1.73-1.886-1.1-3.02.526-.676 1.209-.58 1.507-.465.332.142.403.327.361.376-.046.063-.194.015-.446.016-.234 0-.664.087-.853.432-.396.66.003 1.767.778 2.035.942.382 1.521-.009 1.592.155z" class="colorffab90 svgShape"></path><path fill="#ffffff" d="M212.815 150.052c-6.512 0-11.81-5.298-11.81-11.81a11.76 11.76 0 0 1 4.46-9.24V92.563c0-3.91 3.18-7.092 7.091-7.092a7.1 7.1 0 0 1 7.091 7.092v36.054a11.835 11.835 0 0 1 4.971 9.624c0 6.512-5.295 11.81-11.803 11.81z" class="colorfff svgShape"></path><path fill="#f3f6fd" d="M222.622 138.238c0 5.424-4.393 9.817-9.81 9.817 2.486 0 4.506-4.393 4.506-9.817 0-3.655-.923-6.845-2.286-8.533V92.56c0-2.724-.977-4.944-2.213-5.09a5.095 5.095 0 0 1 4.832 5.09v37.145a9.805 9.805 0 0 1 4.97 8.533z" class="colorf3f6fd svgShape"></path><path fill="#e4ecf9" d="M217.318 138.238c0 5.424-2.02 9.817-4.506 9.817a9.814 9.814 0 0 1-9.816-9.817 9.795 9.795 0 0 1 4.46-8.22V92.56a5.098 5.098 0 0 1 5.097-5.097h.093c.053 0 .107.007.16.007h.013c1.236.146 2.213 2.366 2.213 5.09v37.145c1.363 1.688 2.286 4.878 2.286 8.533z" class="colore4ecf9 svgShape"></path><path fill="#d1dcf8" d="M217.318 138.238c0 5.424-2.02 9.817-4.506 9.817-2.485 0-4.506-4.393-4.506-9.817 0-3.442.818-6.473 2.047-8.22V92.56c0-2.784 1.024-5.044 2.293-5.097h.047c.04 0 .08 0 .113.007h.013c1.236.146 2.213 2.366 2.213 5.09v37.145c1.363 1.688 2.286 4.878 2.286 8.533z" class="colord1dcf8 svgShape"></path><path fill="#fe7b73" d="M212.812 148.055a9.814 9.814 0 0 1-9.816-9.817 9.795 9.795 0 0 1 4.46-8.22v-29.423h2.897v29.422c-1.23 1.748-2.047 4.779-2.047 8.221 0 5.424 2.02 9.817 4.506 9.817z" class="colorfe7b73 svgShape"></path><path fill="#ea241f" d="M222.622 138.238c0 5.424-4.393 9.817-9.81 9.817 2.486 0 4.506-4.393 4.506-9.817 0-3.655-.923-6.845-2.286-8.533v-29.11h2.619v29.11a9.805 9.805 0 0 1 4.97 8.533z" class="colorea241f svgShape"></path><path fill="#fe4c40" d="M217.318 138.238c0 5.424-2.02 9.817-4.506 9.817-2.485 0-4.506-4.393-4.506-9.817 0-3.442.818-6.473 2.047-8.22v-29.423h4.68v29.11c1.362 1.688 2.285 4.878 2.285 8.533z" class="colorfe4c40 svgShape"></path><path fill="#4a5258" d="M226.034 92.416h-4.945a.368.368 0 0 1-.368-.367v-.335c0-.203.165-.367.368-.367h4.945c.203 0 .367.164.367.367v.335a.368.368 0 0 1-.367.367zM224.318 95.856h-3.23a.368.368 0 0 1-.367-.367v-.335c0-.203.165-.367.368-.367h3.229c.203 0 .368.164.368.367v.335a.368.368 0 0 1-.368.367zM226.034 99.297h-4.945a.368.368 0 0 1-.368-.368v-.334c0-.203.165-.368.368-.368h4.945c.203 0 .367.165.367.368v.334a.368.368 0 0 1-.367.368zM224.318 102.737h-3.23a.368.368 0 0 1-.367-.368v-.334c0-.203.165-.368.368-.368h3.229c.203 0 .368.165.368.368v.334a.368.368 0 0 1-.368.368zM226.034 106.177h-4.945a.368.368 0 0 1-.368-.368v-.334c0-.203.165-.368.368-.368h4.945c.203 0 .367.165.367.368v.334a.368.368 0 0 1-.367.368zM224.318 109.617h-3.23a.368.368 0 0 1-.367-.367v-.335c0-.203.165-.367.368-.367h3.229c.203 0 .368.164.368.367v.335a.368.368 0 0 1-.368.367zM226.034 113.057h-4.945a.368.368 0 0 1-.368-.367v-.334c0-.204.165-.368.368-.368h4.945c.203 0 .367.164.367.368v.334a.368.368 0 0 1-.367.367zM224.318 116.498h-3.23a.368.368 0 0 1-.367-.368v-.334c0-.203.165-.368.368-.368h3.229c.203 0 .368.165.368.368v.334a.368.368 0 0 1-.368.368zM226.034 119.938h-4.945a.368.368 0 0 1-.368-.368v-.334c0-.203.165-.368.368-.368h4.945c.203 0 .367.165.367.368v.334a.368.368 0 0 1-.367.368zM224.318 123.378h-3.23a.368.368 0 0 1-.367-.368v-.334c0-.203.165-.368.368-.368h3.229c.203 0 .368.165.368.368v.334a.368.368 0 0 1-.368.368zM226.034 126.818h-4.945a.368.368 0 0 1-.368-.367v-.335c0-.203.165-.367.368-.367h4.945c.203 0 .367.164.367.367v.335a.368.368 0 0 1-.367.367z" class="color4a5258 svgShape"></path><path fill="#ffcf3d" d="m215.347 188.158 1.401 3.555-3.775.555-.56 3.78-3.55-1.406-2.373 2.99-2.369-2.99-3.55 1.4-.555-3.774-3.78-.56 1.406-3.55-2.99-2.374 2.985-2.369-1.401-3.55 3.775-.554.56-3.78 3.55 1.4 2.374-2.985 2.368 2.986 3.556-1.402.554 3.776 3.78.56-1.406 3.55 2.991 2.373z" class="colorffcf3d svgShape"></path><circle cx="206.495" cy="185.788" r="7.927" fill="#ffd964" class="colorffd964 svgShape"></circle><path fill="#ffffff" d="M147.086 254.529c-2.626 0-4.755-2.16-4.755-4.828s2.13-4.831 4.755-4.831c.41 0 .808.051 1.188.15.05-3.333 2.727-6.016 6.02-6.016 2.788 0 5.139 1.928 5.82 4.545a3 3 0 0 1 .753-.096c1.608 0 2.926 1.251 3.064 2.848 2.093.162 3.738 1.94 3.738 4.107 0 2.277-1.815 4.12-4.057 4.12h-16.526z" class="colorfff svgShape"></path><path fill="#d1dcf8" d="M167.67 250.407c0 .089-.004.173-.008.262-.529-1.49-1.88-2.58-3.495-2.705-.138-1.597-1.456-2.848-3.064-2.848a3 3 0 0 0-.753.096c-.681-2.617-3.032-4.545-5.82-4.545-3.293 0-5.97 2.683-6.02 6.017-.38-.1-.778-.151-1.188-.151-2.575 0-4.672 2.082-4.751 4.68a4.84 4.84 0 0 1-.24-1.512c0-2.668 2.13-4.832 4.756-4.832.41 0 .808.052 1.188.151.05-3.333 2.727-6.016 6.02-6.016 2.788 0 5.138 1.928 5.82 4.544.242-.062.492-.095.753-.095 1.608 0 2.926 1.25 3.064 2.848 2.093.162 3.737 1.94 3.737 4.106z" class="colord1dcf8 svgShape"></path><path fill="#64d3ff" d="M151.088 254.672a1.366 1.366 0 0 0 2.733 0c0-.755-1.364-2.967-1.364-2.967s-1.369 2.212-1.369 2.967zM156.934 255.74a1.366 1.366 0 0 0 2.733 0c0-.755-1.364-2.967-1.364-2.967s-1.369 2.212-1.369 2.966zM155.163 260.664a1.366 1.366 0 0 0 2.732 0c0-.754-1.363-2.966-1.363-2.966s-1.37 2.212-1.37 2.966z" class="color64d3ff svgShape"></path></svg>
